<svg width="36" height="25" viewBox="0 0 36 25" fill="none" xmlns="http://www.w3.org/2000/svg">
<path fill-rule="evenodd" clip-rule="evenodd" d="M12.3036 0L0 25H24.8393L12.3036 0Z" fill="#E31937"/>
<path d="M33.125 2.42854C31.625 0.92854 29.4286 0.124969 26.8393 0.124969H14.1786L15.375 2.49997H26.3928C28.3036 2.49997 29.9821 2.98211 31.2857 4.3214C33 6.10711 32.9286 9.24997 32.9286 12.2857C32.9286 15.3214 33 19.0357 31.2857 20.8035C30 22.125 28.3214 22.625 26.3928 22.625H25.4643L26.6607 25H26.8571C29.4464 25 31.6428 24.1964 33.1428 22.6964C35.7321 20.1071 35.5893 15.75 35.5893 12.2857C35.5893 8.8214 35.7143 5.01783 33.125 2.42854Z" fill="#58595B"/>
</svg>
